<svg width="28" height="28" viewBox="0 0 28 28" fill="none" xmlns="http://www.w3.org/2000/svg">
<path d="M14 2.33337C7.55654 2.33337 2.33337 7.55654 2.33337 14C2.33337 20.4435 7.55654 25.6667 14 25.6667C20.4435 25.6667 25.6667 20.4435 25.6667 14C25.6667 7.55654 20.4435 2.33337 14 2.33337Z" fill="url(#paint0_linear)"/>
<path d="M15.579 17.0922H18.5984L19.0726 14.0251H15.579V12.3486C15.579 11.0746 15.9955 9.94466 17.1873 9.94466H19.1024V7.26832C18.7658 7.22282 18.0541 7.12366 16.7095 7.12366C13.9014 7.12366 12.2552 8.60649 12.2552 11.9852V14.0257H9.36829V17.0928H12.2546V25.5232C12.8263 25.6083 13.4055 25.6667 14 25.6667C14.5372 25.6667 15.0616 25.6177 15.579 25.5477V17.0922Z" fill="white"/>
<defs>
<linearGradient id="paint0_linear" x1="5.82929" y1="5.82929" x2="23.6921" y2="23.6921" gradientUnits="userSpaceOnUse">
<stop stop-color="#2AA4F4"/>
<stop offset="1" stop-color="#007AD9"/>
</linearGradient>
</defs>
</svg>
