<svg width="28" height="28" viewBox="0 0 28 28" fill="none" xmlns="http://www.w3.org/2000/svg">
<path d="M28 14.2687C28 13.121 27.9047 12.2835 27.6984 11.415H14.2857V16.5951H22.1587C22 17.8825 21.1428 19.8212 19.2381 21.1239L19.2113 21.2973L23.4522 24.5074L23.746 24.5361C26.4444 22.101 28 18.5183 28 14.2687Z" fill="#4285F4"/>
<path d="M14.2857 27.9171C18.1428 27.9171 21.3808 26.6763 23.746 24.5361L19.238 21.1239C18.0317 21.9459 16.4126 22.5197 14.2857 22.5197C10.5079 22.5197 7.30161 20.0848 6.15864 16.7193L5.99111 16.7332L1.58141 20.0677L1.52374 20.2244C3.87292 24.7841 8.69833 27.9171 14.2857 27.9171Z" fill="#34A853"/>
<path d="M6.15867 16.7193C5.85709 15.8507 5.68255 14.9201 5.68255 13.9586C5.68255 12.9969 5.85709 12.0664 6.1428 11.1978L6.13481 11.0129L1.66986 7.62476L1.52377 7.69265C0.555562 9.58484 0 11.7097 0 13.9586C0 16.2074 0.555562 18.3322 1.52377 20.2243L6.15867 16.7193Z" fill="#FBBC05"/>
<path d="M14.2857 5.39727C16.9682 5.39727 18.7777 6.52946 19.8095 7.47561L23.8412 3.62923C21.3651 1.38035 18.1428 0 14.2857 0C8.69833 0 3.87292 3.1329 1.52374 7.69266L6.14277 11.1979C7.30161 7.8323 10.5079 5.39727 14.2857 5.39727Z" fill="#EB4335"/>
</svg>
